<?xml version="1.0" encoding="UTF-8" standalone="no"?>
<!DOCTYPE svg PUBLIC "-//W3C//DTD SVG 1.1//EN" "http://www.w3.org/Graphics/SVG/1.1/DTD/svg11.dtd">
<svg version="1.1" xmlns="http://www.w3.org/2000/svg" xmlns:xlink="http://www.w3.org/1999/xlink" preserveAspectRatio="xMidYMid meet" viewBox="0 0 640 640" width="640" height="640"><defs><path d="M110.82 285.95L236.99 146.95L139.32 308.01L232.82 262.51L111.82 393.51L338.82 455.51L111.82 437.01L204.32 530.01L204.32 483.51L403.82 463.51L270.82 373.51L341.35 392.16L478.79 254.21L373.27 215.21L236.99 260.41L245.19 219.33L267.19 109.33L138.13 208.3L109.73 183.1L110.82 285.95Z" id="aICXppjMX"></path><path d="M428.09 371.71L477.76 371.71L400.42 336.38L428.09 371.71Z" id="a1AcNOazwL"></path><path d="M477.76 425.04L426.76 425.04L370.09 368.71L477.76 425.04Z" id="bYyXLUPsE"></path><path d="M532.74 320L532.74 372.64L444.41 291.98L532.74 320Z" id="d21Ej16U32"></path><path d="M501.21 337.05L484.96 331.3L480.96 342.55L498.71 347.55L486.96 361.05L496.96 369.55L506.46 354.04L515.96 368.71L526.96 362.05L515.96 348.3L532.74 343.8L528.46 331.3L512.46 337.05L512.46 319.67L501.21 320L501.21 337.05Z" id="e8gE1scTh"></path><path d="M403.89 281.24C403.89 295 392.29 306.18 378 306.18C363.7 306.18 352.1 295 352.1 281.24C352.1 267.47 363.7 256.3 378 256.3C392.29 256.3 403.89 267.47 403.89 281.24Z" id="ePDyYr9fA"></path></defs><g><g><g><use xlink:href="#aICXppjMX" opacity="1" fill="#00f534" fill-opacity="1"></use><g><use xlink:href="#aICXppjMX" opacity="1" fill-opacity="0" stroke="#00f534" stroke-width="0.7" stroke-opacity="1"></use></g></g><g><use xlink:href="#a1AcNOazwL" opacity="1" fill="#00f534" fill-opacity="1"></use><g><use xlink:href="#a1AcNOazwL" opacity="1" fill-opacity="0" stroke="#00f534" stroke-width="0.7" stroke-opacity="1"></use></g></g><g><use xlink:href="#bYyXLUPsE" opacity="1" fill="#00f534" fill-opacity="1"></use><g><use xlink:href="#bYyXLUPsE" opacity="1" fill-opacity="0" stroke="#00f534" stroke-width="0.7" stroke-opacity="1"></use></g></g><g><use xlink:href="#d21Ej16U32" opacity="1" fill="#ff4cb4" fill-opacity="1"></use><g><use xlink:href="#d21Ej16U32" opacity="1" fill-opacity="0" stroke="#ff4cb4" stroke-width="0.7" stroke-opacity="1"></use></g></g><g><use xlink:href="#e8gE1scTh" opacity="1" fill="#000000" fill-opacity="1"></use><g><use xlink:href="#e8gE1scTh" opacity="1" fill-opacity="0" stroke="#000000" stroke-width="0.7" stroke-opacity="1"></use></g></g><g><use xlink:href="#ePDyYr9fA" opacity="1" fill="#ffffff" fill-opacity="1"></use><g><use xlink:href="#ePDyYr9fA" opacity="1" fill-opacity="0" stroke="#ffffff" stroke-width="0.7" stroke-opacity="1"></use></g></g></g></g></svg>